<?xml version="1.0" encoding="UTF-8"?><svg id="a" xmlns="http://www.w3.org/2000/svg" viewBox="0 0 500 189.43"><defs><style>.b{stroke:#000;stroke-miterlimit:10;stroke-width:4px;}</style></defs><g><path d="M49.35,57.13c-1.63-.96-3.12-1.74-4.46-2.34-1.34-.6-2.81-1.14-4.39-1.62-1.58-.48-3.14-.72-4.68-.72-1.2,0-2.18,.19-2.95,.57-.77,.38-1.15,1.02-1.15,1.93,0,.86,.38,1.55,1.15,2.07,.77,.52,1.86,1,3.28,1.43,1.42,.43,3.11,.95,5.08,1.57,3.17,.95,5.9,2.04,8.21,3.28,2.3,1.24,4.08,2.82,5.33,4.75,1.25,1.93,1.87,4.48,1.87,7.67s-.55,5.6-1.66,7.67c-1.1,2.07-2.59,3.72-4.46,4.96-1.87,1.24-3.96,2.13-6.26,2.68-2.3,.55-4.66,.82-7.06,.82s-5-.25-7.67-.76-5.24-1.2-7.74-2.09c-2.5-.89-4.78-1.93-6.84-3.13l6.05-12.31c1.92,1.15,3.67,2.09,5.26,2.81,1.58,.72,3.35,1.37,5.29,1.94,1.94,.58,3.9,.86,5.87,.86,1.54,0,2.6-.19,3.2-.58,.6-.39,.9-.9,.9-1.55,0-1-.53-1.78-1.58-2.32-1.06-.55-2.44-1.07-4.14-1.57-1.7-.5-3.59-1.08-5.65-1.75-2.98-1-5.42-2.13-7.34-3.4-1.92-1.26-3.34-2.76-4.25-4.5-.91-1.74-1.37-3.85-1.37-6.33,0-3.77,.89-6.91,2.66-9.44,1.78-2.53,4.12-4.44,7.02-5.76,2.9-1.31,6.04-1.97,9.4-1.97,2.5,0,4.91,.3,7.24,.9,2.33,.6,4.51,1.33,6.55,2.2,2.04,.86,3.83,1.68,5.36,2.45l-6.05,11.59Z"/><path d="M71.52,40.36l10.01,34.92,9.86-34.92h14.76l-17.64,51.12h-13.97l-17.86-51.12h14.83Z"/><path d="M146.47,79.24v12.24h-36.43V40.36h35.78v12.24h-21.74v7.2h18.58v11.38h-18.58v8.06h22.39Z"/><path d="M167.07,66.35v25.13h-14.04V40.36h10.94l20.52,25.99v-25.99h14.04v51.12h-11.16l-20.3-25.13Z"/></g><g><path d="M171.95,143.07v-51.12h14.04v19.44l15.55-19.44h15.84l-18.58,22.9,19.87,28.22h-16.13l-12.67-18.79-3.89,4.03v14.76h-14.04Z"/><path d="M221.63,143.07v-51.12h23.47c2.5,0,4.8,.5,6.91,1.51,2.11,1.01,3.94,2.36,5.47,4.07,1.54,1.71,2.72,3.61,3.56,5.72,.84,2.11,1.26,4.25,1.26,6.41,0,1.97-.29,3.87-.86,5.69-.58,1.83-1.42,3.49-2.52,5-1.1,1.51-2.42,2.82-3.96,3.92l10.8,18.79h-15.41l-9-15.7h-5.69v15.7h-14.04Zm14.04-27.94h8.86c.58,0,1.13-.22,1.66-.65,.53-.43,.97-1.05,1.33-1.87,.36-.82,.54-1.8,.54-2.95s-.2-2.2-.61-2.99c-.41-.79-.91-1.4-1.51-1.84-.6-.43-1.19-.65-1.76-.65h-8.5v10.94Z"/><path d="M306.66,130.83v12.24h-36.43v-51.12h35.78v12.24h-21.74v7.2h18.58v11.38h-18.58v8.06h22.39Z"/><path d="M313.21,143.07v-51.12h35.06v12.24h-21.02v8.5h17.14v11.38h-17.14v19.01h-14.04Z"/><path d="M390.18,130.83v12.24h-36.43v-51.12h35.78v12.24h-21.74v7.2h18.58v11.38h-18.58v8.06h22.39Z"/><path d="M396.73,143.07v-51.12h14.04v38.88h23.18v12.24h-37.22Z"/><path d="M438.85,143.07v-51.12h19.66c5.66,0,10.4,1.14,14.22,3.42,3.82,2.28,6.7,5.35,8.64,9.22,1.94,3.86,2.92,8.15,2.92,12.85,0,5.18-1.07,9.7-3.2,13.54-2.14,3.84-5.14,6.82-9,8.93-3.86,2.11-8.39,3.17-13.57,3.17h-19.66Zm31.18-25.63c0-2.64-.46-4.96-1.37-6.95-.91-1.99-2.23-3.54-3.96-4.64-1.73-1.1-3.79-1.66-6.19-1.66h-5.62v26.64h5.62c2.45,0,4.52-.58,6.23-1.73,1.7-1.15,3.01-2.75,3.92-4.79,.91-2.04,1.37-4.33,1.37-6.88Z"/></g><line class="b" x1="294.53" y1="6.72" x2="118.53" y2="182.72"/></svg>